<?xml version="1.0" encoding="utf-8"?>
<!-- Generator: Adobe Illustrator 25.4.1, SVG Export Plug-In . SVG Version: 6.00 Build 0)  -->
<svg version="1.1" id="Слой_1" xmlns="http://www.w3.org/2000/svg" xmlns:xlink="http://www.w3.org/1999/xlink" x="0px" y="0px"
	 viewBox="0 0 64 64" style="enable-background:new 0 0 64 64;" xml:space="preserve">
<style type="text/css">
	.st0{fill:#D3B47F;}
	.st1{fill:none;stroke:#FFFFFF;stroke-width:1.5;stroke-linecap:round;stroke-linejoin:round;}
	.st2{fill:none;stroke:#FFFFFF;stroke-width:1.5;}
	.st3{fill:none;stroke:#FFFFFF;stroke-width:2;stroke-linecap:round;stroke-linejoin:round;}
</style>
<circle class="st0" cx="32" cy="32" r="32"/>
<path class="st1" d="M42,29v6c0,2.5-0.5,4.2-1.6,5.4L34,34l7.7-7.7C41.9,27.1,42,28,42,29z"/>
<path class="st1" d="M41.7,26.3L26.3,41.7C23.3,41,22,39,22,35v-6c0-5,2-7,7-7h6C39,22,41,23.3,41.7,26.3z"/>
<path class="st1" d="M40.4,40.4C39.2,41.5,37.5,42,35,42h-6c-1,0-1.9-0.1-2.7-0.3L34,34L40.4,40.4z"/>
<path class="st2" d="M26.2,28c0.7-2.9,5.1-2.9,5.8,0c0.4,1.7-0.7,3.2-1.6,4.1c-0.7,0.7-1.8,0.7-2.5,0C26.9,31.2,25.8,29.7,26.2,28z"
	/>
<path class="st3" d="M29.1,28.7L29.1,28.7"/>
</svg>
